HIERARCHY
ROOT Hips
{
	OFFSET 0.000000 0.000000 0.000000
	CHANNELS 6 Xposition Yposition Zposition Zrotation Yrotation Xrotation 
	JOINT LowerBack
	{
		OFFSET 0.000000 0.000000 0.000000
		CHANNELS 3 Zrotation Yrotation Xrotation
		JOINT Spine
		{
			OFFSET 0.028270 2.035590 -0.193380
			CHANNELS 3 Zrotation Yrotation Xrotation
			JOINT Spine1
			{
				OFFSET 0.056720 2.048850 -0.042750
				CHANNELS 3 Zrotation Yrotation Xrotation
				JOINT Neck
				{
					OFFSET 0.000000 0.000000 0.000000
					CHANNELS 3 Zrotation Yrotation Xrotation
					JOINT Neck1
					{
						OFFSET -0.054170 1.746240 0.172020
						CHANNELS 3 Zrotation Yrotation Xrotation
						JOINT Head
						{
							OFFSET 0.104070 1.761360 -0.123970
							CHANNELS 3 Zrotation Yrotation Xrotation
							End Site
							{
								OFFSET 0.000000 0.000000 0.000000
							}
						}
					}
				}
				JOINT LeftShoulder
				{
					OFFSET 0.000000 0.000000 0.000000
					CHANNELS 3 Zrotation Yrotation Xrotation
					JOINT LeftArm
					{
						OFFSET 3.362410 1.200890 -0.311210
						CHANNELS 3 Zrotation Yrotation Xrotation
						JOINT LeftForeArm
						{
							OFFSET 4.983000 -0.000000 -0.000000
							CHANNELS 3 Zrotation Yrotation Xrotation
							JOINT LeftHand
							{
								OFFSET 3.483560 -0.000000 -0.000000
								CHANNELS 3 Zrotation Yrotation Xrotation
								JOINT LeftFingerBase
								{
									OFFSET 0.000000 0.000000 0.000000
									CHANNELS 3 Zrotation Yrotation Xrotation
									JOINT LeftHandIndex1
									{
										OFFSET 0.715260 -0.000000 -0.000000
										CHANNELS 3 Zrotation Yrotation Xrotation
										End Site
										{
											OFFSET 0.000000 0.000000 0.000000
										}
									}
								}
								JOINT LThumb
								{
									OFFSET 0.000000 0.000000 0.000000
									CHANNELS 3 Zrotation Yrotation Xrotation
									End Site
									{
										OFFSET 0.000000 0.000000 0.000000
									}
								}
							}
						}
					}
				}
				JOINT RightShoulder
				{
					OFFSET 0.000000 0.000000 0.000000
					CHANNELS 3 Zrotation Yrotation Xrotation
					JOINT RightArm
					{
						OFFSET -3.136600 1.374050 -0.404650
						CHANNELS 3 Zrotation Yrotation Xrotation
						JOINT RightForeArm
						{
							OFFSET -5.241900 -0.000000 -0.000000
							CHANNELS 3 Zrotation Yrotation Xrotation
							JOINT RightHand
							{
								OFFSET -3.444170 -0.000000 -0.000000
								CHANNELS 3 Zrotation Yrotation Xrotation
								JOINT RightFingerBase
								{
									OFFSET 0.000000 0.000000 0.000000
									CHANNELS 3 Zrotation Yrotation Xrotation
									JOINT RightHandIndex1
									{
										OFFSET -0.622530 -0.000000 -0.000000
										CHANNELS 3 Zrotation Yrotation Xrotation
										End Site
										{
											OFFSET 0.000000 0.000000 0.000000
										}
									}
								}
								JOINT RThumb
								{
									OFFSET 0.000000 0.000000 0.000000
									CHANNELS 3 Zrotation Yrotation Xrotation
									End Site
									{
										OFFSET 0.000000 0.000000 0.000000
									}
								}
							}
						}
					}
				}
			}
		}
	}
}
}
MOTION
Frames: 17
Frame Time: 0.008333
-3.063932 17.546863 1.324498 -50.986293 -66.074034 71.440732 2.177837 -2.159406 7.185764 -1.396472 -2.228971 -1.868457 -10.577445 -2.399447 -1.241239 13.726127 4.684911 3.429884 -4.855099 -0.403978 2.515924 0.000000 0.000000 0.000000 -4.827954 -14.443766 3.783814 -48.947482 -22.525167 9.651589 -3.391953 -25.446971 -0.003001 4.244697 -4.721960 -0.185530 -0.106192 0.179987 0.000000 0.000000 0.000000 0.000000 0.000000 0.000000 0.000000 24.462968 1.808043 1.250138 70.508582 7.634210 -6.502636 2.419508 15.597012 0.005395 1.560515 10.414294 0.142783 0.012029 -0.099477 0.000000 0.000000 0.000000 0.000000 0.000000 0.000000 0.000000 
-3.062182 17.548288 1.317970 -51.235268 -65.967198 72.008086 2.030655 -2.115040 7.125676 -1.436159 -2.185971 -1.867285 -10.577349 -2.354603 -1.191359 13.758173 4.705837 3.506392 -4.848568 -0.403965 2.529044 0.000000 0.000000 0.000000 -4.862532 -14.454619 3.767453 -48.864850 -22.229969 9.518298 -3.421888 -24.613396 -0.002701 4.149984 -4.566009 -0.175448 -0.105221 0.174317 0.000000 0.000000 0.000000 0.000000 0.000000 0.000000 0.000000 24.473503 1.783156 1.192363 70.534974 7.830555 -6.301308 2.393485 15.785056 0.005235 1.603982 10.474837 0.147780 0.010684 -0.099637 0.000000 0.000000 0.000000 0.000000 0.000000 0.000000 0.000000 
-3.060712 17.548858 1.311450 -51.621348 -65.860669 72.679205 1.895131 -2.061219 7.063501 -1.470991 -2.132262 -1.863910 -10.575772 -2.298697 -1.138866 13.765934 4.732934 3.578661 -4.840666 -0.403929 2.541273 0.000000 0.000000 0.000000 -4.921201 -14.421340 3.750203 -48.764848 -21.944141 9.366761 -3.453732 -23.753228 -0.002386 4.032492 -4.386413 -0.163867 -0.104228 0.168588 0.000000 0.000000 0.000000 0.000000 0.000000 0.000000 0.000000 24.451714 1.778806 1.133257 70.565401 8.014904 -6.084599 2.370196 15.980088 0.005109 1.654854 10.533809 0.153479 0.009447 -0.099866 0.000000 0.000000 0.000000 0.000000 0.000000 0.000000 0.000000 
-3.059620 17.548567 1.304892 -52.130459 -65.752407 73.438346 1.770952 -1.999902 7.002018 -1.501230 -2.069812 -1.858006 -10.573684 -2.233753 -1.084451 13.750022 4.764398 3.643868 -4.832119 -0.403884 2.551880 0.000000 0.000000 0.000000 -5.003638 -14.341826 3.732702 -48.644487 -21.667840 9.196096 -3.487131 -22.876309 -0.002074 3.898490 -4.189879 -0.151384 -0.103246 0.162897 0.000000 0.000000 0.000000 0.000000 0.000000 0.000000 0.000000 24.401813 1.792758 1.073441 70.597992 8.187633 -5.846641 2.348740 16.186466 0.005005 1.706934 10.589492 0.159277 0.008320 -0.100186 0.000000 0.000000 0.000000 0.000000 0.000000 0.000000 0.000000 
-3.058516 17.547635 1.298110 -52.743463 -65.644867 74.251810 1.651851 -1.932906 6.958692 -1.528712 -1.999853 -1.845817 -10.571970 -2.160925 -1.028740 13.712133 4.787607 3.696702 -4.824146 -0.403829 2.559167 0.000000 0.000000 0.000000 -5.106973 -14.222218 3.715225 -48.497817 -21.398606 8.998205 -3.520926 -22.001292 -0.001782 3.751818 -3.979625 -0.138501 -0.102233 0.157325 0.000000 0.000000 0.000000 0.000000 0.000000 0.000000 0.000000 24.331576 1.811295 1.014401 70.629931 8.365834 -5.571288 2.327880 16.398747 0.004913 1.748355 10.645135 0.164076 0.007335 -0.100645 0.000000 0.000000 0.000000 0.000000 0.000000 0.000000 0.000000 
-3.057697 17.546166 1.290989 -53.418535 -65.532880 75.074717 1.536689 -1.864286 6.940001 -1.554094 -1.926522 -1.826918 -10.571468 -2.084556 -0.974890 13.656980 4.808158 3.739031 -4.817149 -0.403777 2.563682 0.000000 0.000000 0.000000 -5.227964 -14.071678 3.699018 -48.325582 -21.125386 8.773173 -3.554279 -21.138403 -0.001531 3.606052 -3.766169 -0.126119 -0.101209 0.151957 0.000000 0.000000 0.000000 0.000000 0.000000 0.000000 0.000000 24.247608 1.837385 0.956724 70.659320 8.536022 -5.266499 2.306007 16.630869 0.004813 1.776745 10.697250 0.167674 0.006418 -0.101232 0.000000 0.000000 0.000000 0.000000 0.000000 0.000000 0.000000 
-3.057133 17.544403 1.283471 -54.110397 -65.416438 75.855037 1.420064 -1.797678 6.957831 -1.579112 -1.853233 -1.799100 -10.572876 -2.008019 -0.923928 13.588898 4.819525 3.768830 -4.812038 -0.403730 2.564726 0.000000 0.000000 0.000000 -5.363565 -13.898613 3.684679 -48.125928 -20.845661 8.520967 -3.586259 -20.299830 -0.001336 3.471208 -3.557442 -0.114836 -0.100162 0.146861 0.000000 0.000000 0.000000 0.000000 0.000000 0.000000 0.000000 24.158592 1.861343 0.901094 70.682585 8.702991 -4.927335 2.281821 16.884481 0.004690 1.784395 10.748325 0.169272 0.005558 -0.101959 0.000000 0.000000 0.000000 0.000000 0.000000 0.000000 0.000000 
-3.057122 17.542419 1.275344 -54.768563 -65.295447 76.544849 1.295466 -1.737283 7.011914 -1.605663 -1.784430 -1.763664 -10.576618 -1.935936 -0.879229 13.514978 4.829294 3.790303 -4.808974 -0.403714 2.563504 0.000000 0.000000 0.000000 -5.505896 -13.715801 3.672850 -47.903895 -20.545805 8.246722 -3.615992 -19.490970 -0.001217 3.364072 -3.364818 -0.105355 -0.099102 0.142067 0.000000 0.000000 0.000000 0.000000 0.000000 0.000000 0.000000 24.072368 1.887315 0.847546 70.699139 8.847053 -4.565759 2.253669 17.176117 0.004528 1.771808 10.794300 0.168872 0.004657 -0.102787 0.000000 0.000000 0.000000 0.000000 0.000000 0.000000 0.000000 
-3.057753 17.540470 1.266555 -55.353318 -65.206278 77.155766 1.133867 -1.680454 7.070590 -1.645361 -1.721035 -1.735380 -10.582636 -1.869613 -0.841333 13.437903 4.831005 3.799994 -4.809081 -0.403700 2.558878 0.000000 0.000000 0.000000 -5.649931 -13.527121 3.662950 -47.661964 -20.222662 7.953022 -3.643236 -18.722411 -0.001173 3.293635 -3.194351 -0.098072 -0.098041 0.137519 0.000000 0.000000 0.000000 0.000000 0.000000 0.000000 0.000000 23.997060 1.901246 0.796858 70.709670 8.970668 -4.182010 2.221376 17.504925 0.004315 1.734006 10.839201 0.166071 0.003737 -0.103689 0.000000 0.000000 0.000000 0.000000 0.000000 0.000000 0.000000 
-3.059158 17.538738 1.257036 -55.840368 -65.164920 77.694772 0.922703 -1.625809 7.112652 -1.703843 -1.663931 -1.723413 -10.590945 -1.810236 -0.810985 13.360693 4.822984 3.797614 -4.812844 -0.403684 2.550746 0.000000 0.000000 0.000000 -5.790629 -13.337906 3.654262 -47.405284 -19.872557 7.643960 -3.667449 -17.999687 -0.001205 3.268512 -3.051784 -0.092991 -0.096964 0.133176 0.000000 0.000000 0.000000 0.000000 0.000000 0.000000 0.000000 23.937854 1.896796 0.749406 70.714784 9.070306 -3.782470 2.184979 17.872342 0.004051 1.669793 10.885047 0.160669 0.002801 -0.104646 0.000000 0.000000 0.000000 0.000000 0.000000 0.000000 0.000000 
-3.061438 17.537303 1.246908 -56.206475 -65.115644 78.071353 0.699967 -1.582010 7.187217 -1.764738 -1.616255 -1.704101 -10.601620 -1.760152 -0.786765 13.288252 4.802903 3.788118 -4.819442 -0.403752 2.540677 0.000000 0.000000 0.000000 -5.925947 -13.160886 3.646587 -47.138710 -19.497412 7.324500 -3.686794 -17.324123 -0.001323 3.294512 -2.940135 -0.090310 -0.095761 0.129118 0.000000 0.000000 0.000000 0.000000 0.000000 0.000000 0.000000 23.895912 1.877812 0.704324 70.708773 9.147260 -3.376409 2.143701 18.276328 0.003730 1.580332 10.934166 0.152867 0.001810 -0.105730 0.000000 0.000000 0.000000 0.000000 0.000000 0.000000 0.000000 
-3.064716 17.536375 1.236067 -56.443641 -65.060761 78.285534 0.462676 -1.547898 7.288043 -1.828458 -1.576967 -1.679038 -10.613878 -1.718521 -0.771025 13.223819 4.778865 3.777052 -4.828225 -0.403931 2.530215 0.000000 0.000000 0.000000 -6.048262 -13.010001 3.639497 -46.871414 -19.082038 6.991902 -3.700368 -16.704966 -0.001516 3.373814 -2.860873 -0.089830 -0.094356 0.125277 0.000000 0.000000 0.000000 0.000000 0.000000 0.000000 0.000000 23.872059 1.852830 0.662389 70.694096 9.188911 -2.988288 2.097357 18.720021 0.003351 1.472163 10.983949 0.143165 0.000706 -0.106950 0.000000 0.000000 0.000000 0.000000 0.000000 0.000000 0.000000 
-3.069215 17.535755 1.225085 -56.545693 -64.991761 78.347618 0.224261 -1.522860 7.401409 -1.891672 -1.545973 -1.648958 -10.627413 -1.684684 -0.754982 13.162048 4.730920 3.756219 -4.839634 -0.404205 2.517375 0.000000 0.000000 0.000000 -6.165680 -12.859439 3.630714 -46.607276 -18.670359 6.666246 -3.709467 -16.123961 -0.001766 3.500750 -2.813596 -0.091550 -0.092813 0.121654 0.000000 0.000000 0.000000 0.000000 0.000000 0.000000 0.000000 23.861995 1.800635 0.621154 70.667599 9.221282 -2.598186 2.048762 19.179023 0.002938 1.337887 11.046887 0.130963 -0.000308 -0.108315 0.000000 0.000000 0.000000 0.000000 0.000000 0.000000 0.000000 
-3.075010 17.535344 1.214230 -56.515305 -64.904165 78.269153 -0.006811 -1.505432 7.516588 -1.952186 -1.522220 -1.616554 -10.641106 -1.657705 -0.738544 13.099934 4.662528 3.728949 -4.852776 -0.404575 2.503333 0.000000 0.000000 0.000000 -6.278084 -12.714069 3.619584 -46.356698 -18.258341 6.347812 -3.714122 -15.583870 -0.002054 3.667952 -2.794862 -0.095070 -0.091104 0.118191 0.000000 0.000000 0.000000 0.000000 0.000000 0.000000 0.000000 23.857749 1.724958 0.580746 70.633293 9.239079 -2.225679 1.999631 19.646108 0.002507 1.184139 11.123090 0.116861 -0.001197 -0.109813 0.000000 0.000000 0.000000 0.000000 0.000000 0.000000 0.000000 
-3.081967 17.535537 1.202830 -56.356795 -64.814399 78.047112 -0.252539 -1.493714 7.642315 -2.015194 -1.503327 -1.581836 -10.653748 -1.635724 -0.729540 13.045404 4.599877 3.706978 -4.866402 -0.405040 2.490809 0.000000 0.000000 0.000000 -6.366201 -12.597598 3.607228 -46.129051 -17.811659 6.021394 -3.713591 -15.100705 -0.002377 3.870818 -2.795950 -0.100091 -0.089130 0.114806 0.000000 0.000000 0.000000 0.000000 0.000000 0.000000 0.000000 23.863809 1.654468 0.543045 70.600636 9.212886 -1.922329 1.948148 20.134829 0.002044 1.032455 11.197522 0.102759 -0.002224 -0.111383 0.000000 0.000000 0.000000 0.000000 0.000000 0.000000 0.000000 
-3.090365 17.535867 1.191525 -56.069337 -64.710510 77.693819 -0.494310 -1.487667 7.766066 -2.076157 -1.489802 -1.544556 -10.664563 -1.618380 -0.715017 12.987884 4.512583 3.676633 -4.880879 -0.405533 2.476389 0.000000 0.000000 0.000000 -6.443087 -12.467868 3.590594 -45.927104 -17.398245 5.714450 -3.710578 -14.644225 -0.002697 4.090473 -2.814800 -0.106311 -0.087065 0.111563 0.000000 0.000000 0.000000 0.000000 0.000000 0.000000 0.000000 23.869813 1.557226 0.504338 70.567669 9.184952 -1.643909 1.898403 20.604696 0.001584 0.866091 11.286699 0.087057 -0.003032 -0.113006 0.000000 0.000000 0.000000 0.000000 0.000000 0.000000 0.000000 
-3.100121 17.536350 1.180192 -55.658977 -64.596393 77.211576 -0.735893 -1.485877 7.889267 -2.135885 -1.480234 -1.505934 -10.672291 -1.604666 -0.699775 12.928196 4.417947 3.646194 -4.894894 -0.406044 2.462288 0.000000 0.000000 0.000000 -6.501993 -12.341688 3.570769 -45.759044 -16.992244 5.417009 -3.705110 -14.229208 -0.003003 4.314236 -2.840356 -0.112830 -0.084894 0.108413 0.000000 0.000000 0.000000 0.000000 0.000000 0.000000 0.000000 23.870807 1.452236 0.466072 70.542748 9.134500 -1.428810 1.850528 21.059729 0.001134 0.700925 11.380379 0.071155 -0.003742 -0.114626 0.000000 0.000000 0.000000 0.000000 0.000000 0.000000 0.000000 
